<svg xmlns="http://www.w3.org/2000/svg" xmlns:xlink="http://www.w3.org/1999/xlink" contentStyleType="text/css" height="713px" preserveAspectRatio="none" style="width:542px;height:713px;background:#FFFFFF;" version="1.1" viewBox="0 0 542 713" width="542px" zoomAndPan="magnify"><defs/><g><rect fill="none" height="133.6641" style="stroke:#000000;stroke-width:1.5;" width="506.8066" x="20" y="82.4297"/><rect fill="none" height="430.9922" style="stroke:#000000;stroke-width:1.5;" width="526.8066" x="10" y="230.0938"/><rect fill="none" height="104.5313" style="stroke:#000000;stroke-width:1.5;" width="267.4678" x="20" y="254.2266"/><rect fill="none" height="75.3984" style="stroke:#000000;stroke-width:1.5;" width="351.4053" x="175.4014" y="372.7578"/><rect fill="none" height="133.6641" style="stroke:#000000;stroke-width:1.5;" width="506.8066" x="20" y="462.1563"/><line style="stroke:#181818;stroke-width:0.5;stroke-dasharray:5.0,5.0;" x1="63" x2="63" y1="36.2969" y2="678.0859"/><line style="stroke:#181818;stroke-width:0.5;stroke-dasharray:5.0,5.0;" x1="140.4658" x2="140.4658" y1="36.2969" y2="678.0859"/><line style="stroke:#181818;stroke-width:0.5;stroke-dasharray:5.0,5.0;" x1="231.4014" x2="231.4014" y1="36.2969" y2="678.0859"/><line style="stroke:#181818;stroke-width:0.5;stroke-dasharray:5.0,5.0;" x1="495.4561" x2="495.4561" y1="36.2969" y2="678.0859"/><rect fill="#E2E2F0" height="30.2969" rx="2.5" ry="2.5" style="stroke:#181818;stroke-width:0.5;" width="66.4658" x="30" y="5"/><text fill="#000000" font-family="sans-serif" font-size="14" lengthAdjust="spacing" textLength="52.4658" x="37" y="24.9951">BFabric</text><rect fill="#E2E2F0" height="30.2969" rx="2.5" ry="2.5" style="stroke:#181818;stroke-width:0.5;" width="66.4658" x="30" y="677.0859"/><text fill="#000000" font-family="sans-serif" font-size="14" lengthAdjust="spacing" textLength="52.4658" x="37" y="697.0811">BFabric</text><rect fill="#E2E2F0" height="30.2969" rx="2.5" ry="2.5" style="stroke:#181818;stroke-width:0.5;" width="68.7764" x="106.4658" y="5"/><text fill="#000000" font-family="sans-serif" font-size="14" lengthAdjust="spacing" textLength="54.7764" x="113.4658" y="24.9951">Storage</text><rect fill="#E2E2F0" height="30.2969" rx="2.5" ry="2.5" style="stroke:#181818;stroke-width:0.5;" width="68.7764" x="106.4658" y="677.0859"/><text fill="#000000" font-family="sans-serif" font-size="14" lengthAdjust="spacing" textLength="54.7764" x="113.4658" y="697.0811">Storage</text><rect fill="#E2E2F0" height="30.2969" rx="2.5" ry="2.5" style="stroke:#181818;stroke-width:0.5;" width="92.0664" x="185.4014" y="5"/><text fill="#000000" font-family="sans-serif" font-size="14" lengthAdjust="spacing" textLength="78.0664" x="192.4014" y="24.9951">AppRunner</text><rect fill="#E2E2F0" height="30.2969" rx="2.5" ry="2.5" style="stroke:#181818;stroke-width:0.5;" width="92.0664" x="185.4014" y="677.0859"/><text fill="#000000" font-family="sans-serif" font-size="14" lengthAdjust="spacing" textLength="78.0664" x="192.4014" y="697.0811">AppRunner</text><rect fill="#E2E2F0" height="30.2969" rx="2.5" ry="2.5" style="stroke:#181818;stroke-width:0.5;" width="41.3506" x="475.4561" y="5"/><text fill="#000000" font-family="sans-serif" font-size="14" lengthAdjust="spacing" textLength="27.3506" x="482.4561" y="24.9951">App</text><rect fill="#E2E2F0" height="30.2969" rx="2.5" ry="2.5" style="stroke:#181818;stroke-width:0.5;" width="41.3506" x="475.4561" y="677.0859"/><text fill="#000000" font-family="sans-serif" font-size="14" lengthAdjust="spacing" textLength="27.3506" x="482.4561" y="697.0811">App</text><polygon fill="#181818" points="219.4346,63.4297,229.4346,67.4297,219.4346,71.4297,223.4346,67.4297" style="stroke:#181818;stroke-width:1.0;"/><line style="stroke:#181818;stroke-width:1.0;" x1="63.2329" x2="225.4346" y1="67.4297" y2="67.4297"/><text fill="#000000" font-family="sans-serif" font-size="13" lengthAdjust="spacing" textLength="56.437" x="70.2329" y="62.3638">run(app)</text><path d="M20,82.4297 L159.6626,82.4297 L159.6626,89.5625 L149.6626,99.5625 L20,99.5625 L20,82.4297 " fill="#EEEEEE" style="stroke:#000000;stroke-width:1.5;"/><rect fill="none" height="133.6641" style="stroke:#000000;stroke-width:1.5;" width="506.8066" x="20" y="82.4297"/><text fill="#000000" font-family="sans-serif" font-size="13" font-weight="bold" lengthAdjust="spacing" textLength="94.6626" x="35" y="95.4966">dispatch app</text><polygon fill="#181818" points="484.1313,116.6953,494.1313,120.6953,484.1313,124.6953,488.1313,120.6953" style="stroke:#181818;stroke-width:1.0;"/><line style="stroke:#181818;stroke-width:1.0;" x1="231.4346" x2="490.1313" y1="120.6953" y2="120.6953"/><text fill="#000000" font-family="sans-serif" font-size="13" lengthAdjust="spacing" textLength="89.9526" x="238.4346" y="115.6294">dispatch(app)</text><polygon fill="#181818" points="74.2329,145.8281,64.2329,149.8281,74.2329,153.8281,70.2329,149.8281" style="stroke:#181818;stroke-width:1.0;"/><line style="stroke:#181818;stroke-width:1.0;" x1="68.2329" x2="495.1313" y1="149.8281" y2="149.8281"/><text fill="#000000" font-family="sans-serif" font-size="13" lengthAdjust="spacing" textLength="37.5273" x="80.2329" y="144.7622">query</text><polygon fill="#181818" points="484.1313,174.9609,494.1313,178.9609,484.1313,182.9609,488.1313,178.9609" style="stroke:#181818;stroke-width:1.0;"/><line style="stroke:#181818;stroke-width:1.0;" x1="63.2329" x2="490.1313" y1="178.9609" y2="178.9609"/><text fill="#000000" font-family="sans-serif" font-size="13" lengthAdjust="spacing" textLength="59.3315" x="70.2329" y="173.895">response</text><polygon fill="#181818" points="242.4346,204.0938,232.4346,208.0938,242.4346,212.0938,238.4346,208.0938" style="stroke:#181818;stroke-width:1.0;"/><line style="stroke:#181818;stroke-width:1.0;" x1="236.4346" x2="495.1313" y1="208.0938" y2="208.0938"/><text fill="#000000" font-family="sans-serif" font-size="13" lengthAdjust="spacing" textLength="240.6968" x="248.4346" y="203.0278">"chunks.yml", "chunk1/input.yml", ...</text><path d="M10,230.0938 L86.624,230.0938 L86.624,237.2266 L76.624,247.2266 L10,247.2266 L10,230.0938 " fill="#EEEEEE" style="stroke:#000000;stroke-width:1.5;"/><rect fill="none" height="430.9922" style="stroke:#000000;stroke-width:1.5;" width="526.8066" x="10" y="230.0938"/><text fill="#000000" font-family="sans-serif" font-size="13" font-weight="bold" lengthAdjust="spacing" textLength="31.624" x="25" y="243.1606">loop</text><text fill="#000000" font-family="sans-serif" font-size="11" font-weight="bold" lengthAdjust="spacing" textLength="102.0454" x="101.624" y="242.3042">[for each chunk]</text><path d="M20,254.2266 L173.5894,254.2266 L173.5894,261.3594 L163.5894,271.3594 L20,271.3594 L20,254.2266 " fill="#EEEEEE" style="stroke:#000000;stroke-width:1.5;"/><rect fill="none" height="104.5313" style="stroke:#000000;stroke-width:1.5;" width="267.4678" x="20" y="254.2266"/><text fill="#000000" font-family="sans-serif" font-size="13" font-weight="bold" lengthAdjust="spacing" textLength="108.5894" x="35" y="267.2935">prepare inputs</text><polygon fill="#181818" points="74.2329,288.4922,64.2329,292.4922,74.2329,296.4922,70.2329,292.4922" style="stroke:#181818;stroke-width:1.0;"/><line style="stroke:#181818;stroke-width:1.0;" x1="68.2329" x2="230.4346" y1="292.4922" y2="292.4922"/><text fill="#000000" font-family="sans-serif" font-size="13" lengthAdjust="spacing" textLength="37.5273" x="80.2329" y="287.4263">query</text><polygon fill="#181818" points="219.4346,317.625,229.4346,321.625,219.4346,325.625,223.4346,321.625" style="stroke:#181818;stroke-width:1.0;"/><line style="stroke:#181818;stroke-width:1.0;" x1="63.2329" x2="225.4346" y1="321.625" y2="321.625"/><text fill="#000000" font-family="sans-serif" font-size="13" lengthAdjust="spacing" textLength="59.3315" x="70.2329" y="316.5591">response</text><polygon fill="#181818" points="219.4346,346.7578,229.4346,350.7578,219.4346,354.7578,223.4346,350.7578" style="stroke:#181818;stroke-width:1.0;"/><line style="stroke:#181818;stroke-width:1.0;" x1="140.854" x2="225.4346" y1="350.7578" y2="350.7578"/><text fill="#000000" font-family="sans-serif" font-size="13" lengthAdjust="spacing" textLength="66.5806" x="147.854" y="345.6919">Copy Files</text><path d="M175.4014,372.7578 L325.6899,372.7578 L325.6899,379.8906 L315.6899,389.8906 L175.4014,389.8906 L175.4014,372.7578 " fill="#EEEEEE" style="stroke:#000000;stroke-width:1.5;"/><rect fill="none" height="75.3984" style="stroke:#000000;stroke-width:1.5;" width="351.4053" x="175.4014" y="372.7578"/><text fill="#000000" font-family="sans-serif" font-size="13" font-weight="bold" lengthAdjust="spacing" textLength="105.2886" x="190.4014" y="385.8247">process chunk</text><polygon fill="#181818" points="484.1313,407.0234,494.1313,411.0234,484.1313,415.0234,488.1313,411.0234" style="stroke:#181818;stroke-width:1.0;"/><line style="stroke:#181818;stroke-width:1.0;" x1="231.4346" x2="490.1313" y1="411.0234" y2="411.0234"/><text fill="#000000" font-family="sans-serif" font-size="13" lengthAdjust="spacing" textLength="120.0088" x="238.4346" y="405.9575">process("chunk1")</text><polygon fill="#181818" points="242.4346,436.1563,232.4346,440.1563,242.4346,444.1563,238.4346,440.1563" style="stroke:#181818;stroke-width:1.0;"/><line style="stroke:#181818;stroke-width:1.0;" x1="236.4346" x2="495.1313" y1="440.1563" y2="440.1563"/><text fill="#000000" font-family="sans-serif" font-size="13" lengthAdjust="spacing" textLength="37.1719" x="248.4346" y="435.0903">notify</text><path d="M20,462.1563 L174.7256,462.1563 L174.7256,469.2891 L164.7256,479.2891 L20,479.2891 L20,462.1563 " fill="#EEEEEE" style="stroke:#000000;stroke-width:1.5;"/><rect fill="none" height="133.6641" style="stroke:#000000;stroke-width:1.5;" width="506.8066" x="20" y="462.1563"/><text fill="#000000" font-family="sans-serif" font-size="13" font-weight="bold" lengthAdjust="spacing" textLength="109.7256" x="35" y="475.2231">collect outputs</text><polygon fill="#181818" points="484.1313,496.4219,494.1313,500.4219,484.1313,504.4219,488.1313,500.4219" style="stroke:#181818;stroke-width:1.0;"/><line style="stroke:#181818;stroke-width:1.0;" x1="231.4346" x2="490.1313" y1="500.4219" y2="500.4219"/><text fill="#000000" font-family="sans-serif" font-size="13" lengthAdjust="spacing" textLength="112.3345" x="238.4346" y="495.356">collect("chunk1")</text><polygon fill="#181818" points="74.2329,525.5547,64.2329,529.5547,74.2329,533.5547,70.2329,529.5547" style="stroke:#181818;stroke-width:1.0;"/><line style="stroke:#181818;stroke-width:1.0;" x1="68.2329" x2="495.1313" y1="529.5547" y2="529.5547"/><text fill="#000000" font-family="sans-serif" font-size="13" lengthAdjust="spacing" textLength="37.5273" x="80.2329" y="524.4888">query</text><polygon fill="#181818" points="484.1313,554.6875,494.1313,558.6875,484.1313,562.6875,488.1313,558.6875" style="stroke:#181818;stroke-width:1.0;"/><line style="stroke:#181818;stroke-width:1.0;" x1="63.2329" x2="490.1313" y1="558.6875" y2="558.6875"/><text fill="#000000" font-family="sans-serif" font-size="13" lengthAdjust="spacing" textLength="59.3315" x="70.2329" y="553.6216">response</text><polygon fill="#181818" points="242.4346,583.8203,232.4346,587.8203,242.4346,591.8203,238.4346,587.8203" style="stroke:#181818;stroke-width:1.0;"/><line style="stroke:#181818;stroke-width:1.0;" x1="236.4346" x2="495.1313" y1="587.8203" y2="587.8203"/><text fill="#000000" font-family="sans-serif" font-size="13" lengthAdjust="spacing" textLength="89.7114" x="248.4346" y="582.7544">"outputs.yml"</text><polygon fill="#181818" points="151.854,619.9531,141.854,623.9531,151.854,627.9531,147.854,623.9531" style="stroke:#181818;stroke-width:1.0;"/><line style="stroke:#181818;stroke-width:1.0;" x1="145.854" x2="230.4346" y1="623.9531" y2="623.9531"/><text fill="#000000" font-family="sans-serif" font-size="13" lengthAdjust="spacing" textLength="66.5806" x="157.854" y="618.8872">Copy Files</text><polygon fill="#181818" points="74.2329,649.0859,64.2329,653.0859,74.2329,657.0859,70.2329,653.0859" style="stroke:#181818;stroke-width:1.0;"/><line style="stroke:#181818;stroke-width:1.0;" x1="68.2329" x2="230.4346" y1="653.0859" y2="653.0859"/><text fill="#000000" font-family="sans-serif" font-size="13" lengthAdjust="spacing" textLength="31.9097" x="80.2329" y="648.02">Save</text><!--SRC=[ZP9DJiCm48NtFiMegrQ28BPP805I3q1FODnfQn4yK_yWvVQapYWuYIlXNMRU-7r-4zO-McDPkmXlU_tfhL5Sr0wHl3xZhFRA_96SGx-iAYLNmEFBdwe5dznMC- -KEdjA34SRM4TpWQ6eO3YJLWRRIJBEYURM5OSMhWbzdpjpqy4E0vCBM8uLD1jpIUuhDFrtjtcGh-SdwpX5gJLDez0TbUg864xa0VL0cvNvql4Px748026FXjnOFQQ2kqQUSYh1RqVINyZUYNlOsmv7pqnQKf7140hQUiAYsqe0crsfNJWwYlRKrzmCTHsQ29JY_H2odoZl-_qhgaf8bGqBJLxdd7h69V6k4grlyA1_KEN_uXS0]--></g></svg>