<svg xmlns="http://www.w3.org/2000/svg" xmlns:xlink="http://www.w3.org/1999/xlink" contentStyleType="text/css" height="999px" preserveAspectRatio="none" style="width:728px;height:999px;background:#FFFFFF;" version="1.1" viewBox="0 0 728 999" width="728px" zoomAndPan="magnify"><title>App Runner Activity Diagram</title><defs/><g><text fill="#000000" font-family="sans-serif" font-size="14" font-weight="bold" lengthAdjust="spacing" textLength="229.7764" x="248.0289" y="32.9951">App Runner Activity Diagram</text><ellipse cx="288.4875" cy="57.2969" fill="#222222" rx="10" ry="10" style="stroke:#222222;stroke-width:1.0;"/><rect fill="#F1F1F1" height="33.9688" style="stroke:#181818;stroke-width:0.5;" width="94.8301" x="241.0725" y="87.2969"/><text fill="#000000" font-family="sans-serif" font-size="12" lengthAdjust="spacing" textLength="74.8301" x="251.0725" y="108.4355">workunit_ref</text><rect fill="none" height="455.5234" style="stroke:#000000;stroke-width:1.5;" width="706.8342" x="11" y="131.2656"/><path d="M103.5166,131.2656 L103.5166,140.5625 L93.5166,150.5625 L11,150.5625 " fill="none" style="stroke:#000000;stroke-width:1.5;"/><text fill="#000000" font-family="sans-serif" font-size="14" lengthAdjust="spacing" textLength="82.5166" x="14" y="145.2607">App Runner</text><rect fill="#F1F1F1" height="33.9688" rx="12.5" ry="12.5" style="stroke:#181818;stroke-width:0.5;" width="252.7402" x="162.1174" y="167.5625"/><text fill="#000000" font-family="sans-serif" font-size="12" lengthAdjust="spacing" textLength="232.7402" x="172.1174" y="188.7012">Retrieve workunit and app information</text><line style="stroke:#181818;stroke-width:1.5;" x1="103.3564" x2="288.4875" y1="221.5313" y2="221.5313"/><rect fill="#F1F1F1" height="33.9688" style="stroke:#181818;stroke-width:0.5;" width="160.7129" x="23" y="241.5313"/><text fill="#000000" font-family="sans-serif" font-size="12" lengthAdjust="spacing" textLength="140.7129" x="33" y="262.6699">workunit_definition.yml</text><path d="M362.7246,238.3828 L362.7246,254.5156 L342.7246,258.5156 L362.7246,262.5156 L362.7246,278.6484 A0,0 0 0 0 362.7246,278.6484 L553.9751,278.6484 A0,0 0 0 0 553.9751,278.6484 L553.9751,248.3828 L543.9751,238.3828 L362.7246,238.3828 A0,0 0 0 0 362.7246,238.3828 " fill="#FEFFDD" style="stroke:#181818;stroke-width:0.5;"/><path d="M543.9751,238.3828 L543.9751,248.3828 L553.9751,248.3828 L543.9751,238.3828 " fill="#FEFFDD" style="stroke:#181818;stroke-width:0.5;"/><text fill="#000000" font-family="sans-serif" font-size="13" lengthAdjust="spacing" textLength="170.2505" x="368.7246" y="255.4497">These are maintained in a</text><text fill="#000000" font-family="sans-serif" font-size="13" lengthAdjust="spacing" textLength="146.377" x="368.7246" y="270.5825">centralized repository.</text><rect fill="#F1F1F1" height="33.9688" style="stroke:#181818;stroke-width:0.5;" width="131.0117" x="211.7129" y="241.5313"/><text fill="#000000" font-family="sans-serif" font-size="12" lengthAdjust="spacing" textLength="111.0117" x="221.7129" y="262.6699">app_definition.yml</text><line style="stroke:#181818;stroke-width:1.5;" x1="103.3564" x2="288.4875" y1="298.6484" y2="298.6484"/><rect fill="#F1F1F1" height="33.9688" rx="12.5" ry="12.5" style="stroke:#181818;stroke-width:0.5;" width="205.2441" x="185.8655" y="318.6484"/><text fill="#000000" font-family="sans-serif" font-size="12" lengthAdjust="spacing" textLength="185.2441" x="195.8655" y="339.7871">Set workunit processing status</text><path d="M401.5706,369.4688 L401.5706,385.6016 L381.5706,389.6016 L401.5706,393.6016 L401.5706,409.7344 A0,0 0 0 0 401.5706,409.7344 L707.8342,409.7344 A0,0 0 0 0 707.8342,409.7344 L707.8342,379.4688 L697.8342,369.4688 L401.5706,369.4688 A0,0 0 0 0 401.5706,369.4688 " fill="#FEFFDD" style="stroke:#181818;stroke-width:0.5;"/><path d="M697.8342,369.4688 L697.8342,379.4688 L707.8342,379.4688 L697.8342,369.4688 " fill="#FEFFDD" style="stroke:#181818;stroke-width:0.5;"/><text fill="#000000" font-family="sans-serif" font-size="13" lengthAdjust="spacing" textLength="272.3145" x="407.5706" y="386.5356">This step is supposed to be deterministic!</text><text fill="#000000" font-family="sans-serif" font-size="13" lengthAdjust="spacing" textLength="285.2637" x="407.5706" y="401.6685">To allow distributing the tasks in the future.</text><rect fill="#F1F1F1" height="33.9688" rx="12.5" ry="12.5" style="stroke:#181818;stroke-width:0.5;" width="186.166" x="195.4045" y="372.6172"/><text fill="#000000" font-family="monospace" font-size="12" lengthAdjust="spacing" textLength="166.166" x="205.4045" y="393.7559">app-runner&#160;app&#160;dispatch</text><line style="stroke:#181818;stroke-width:1.5;" x1="132.4114" x2="419.2512" y1="429.7344" y2="429.7344"/><rect fill="#F1F1F1" height="33.9688" style="stroke:#181818;stroke-width:0.5;" width="77.4512" x="93.6858" y="456.7188"/><text fill="#000000" font-family="sans-serif" font-size="12" lengthAdjust="spacing" textLength="57.4512" x="103.6858" y="477.8574">tasks.yml</text><rect fill="#F1F1F1" height="47.9375" style="stroke:#181818;stroke-width:0.5;" width="128.0762" x="199.137" y="449.7344"/><text fill="#000000" font-family="sans-serif" font-size="12" lengthAdjust="spacing" textLength="99.9961" x="209.137" y="470.873">task1/inputs.yml</text><text fill="#000000" font-family="sans-serif" font-size="12" lengthAdjust="spacing" textLength="108.0762" x="209.137" y="484.8418">task1/params.yml</text><rect fill="#F1F1F1" height="47.9375" style="stroke:#181818;stroke-width:0.5;" width="128.0762" x="355.2131" y="449.7344"/><text fill="#000000" font-family="sans-serif" font-size="12" lengthAdjust="spacing" textLength="99.9961" x="365.2131" y="470.873">task2/inputs.yml</text><text fill="#000000" font-family="sans-serif" font-size="12" lengthAdjust="spacing" textLength="108.0762" x="365.2131" y="484.8418">task2/params.yml</text><line style="stroke:#181818;stroke-width:1.5;" x1="132.4114" x2="419.2512" y1="517.6719" y2="517.6719"/><path d="M419.6321,534.5234 L419.6321,550.6563 L399.6321,554.6563 L419.6321,558.6563 L419.6321,574.7891 A0,0 0 0 0 419.6321,574.7891 L707.5701,574.7891 A0,0 0 0 0 707.5701,574.7891 L707.5701,544.5234 L697.5701,534.5234 L419.6321,534.5234 A0,0 0 0 0 419.6321,534.5234 " fill="#FEFFDD" style="stroke:#181818;stroke-width:0.5;"/><path d="M697.5701,534.5234 L697.5701,544.5234 L707.5701,544.5234 L697.5701,534.5234 " fill="#FEFFDD" style="stroke:#181818;stroke-width:0.5;"/><text fill="#000000" font-family="sans-serif" font-size="13" lengthAdjust="spacing" textLength="266.938" x="425.6321" y="551.5903">The actual ordering will be decided here.</text><text fill="#000000" font-family="sans-serif" font-size="13" lengthAdjust="spacing" textLength="251.9829" x="425.6321" y="566.7231">tasks.yml declares task dependencies.</text><rect fill="#F1F1F1" height="33.9688" style="stroke:#181818;stroke-width:0.5;" width="222.2891" x="177.343" y="537.6719"/><text fill="#000000" font-family="monospace" font-size="12" lengthAdjust="spacing" textLength="202.2891" x="187.343" y="558.8105">app-runner&#160;chunk&#160;process-all</text><rect fill="#555555" height="6" rx="2.5" ry="2.5" style="stroke:#555555;stroke-width:1.0;" width="295.1836" x="140.8958" y="606.7891"/><rect fill="#F1F1F1" height="33.9688" rx="12.5" ry="12.5" style="stroke:#181818;stroke-width:0.5;" width="107.0586" x="161.1624" y="632.7891"/><text fill="#000000" font-family="sans-serif" font-size="12" lengthAdjust="spacing" textLength="87.0586" x="171.1624" y="653.9277">Stage inputs 1</text><rect fill="none" height="136.2344" style="stroke:#000000;stroke-width:1.5;" width="111.7715" x="158.8059" y="676.7578"/><path d="M196.1565,676.7578 L196.1565,686.0547 L186.1565,696.0547 L158.8059,696.0547 " fill="none" style="stroke:#000000;stroke-width:1.5;"/><text fill="#000000" font-family="sans-serif" font-size="14" lengthAdjust="spacing" textLength="27.3506" x="161.8059" y="690.7529">App</text><rect fill="#F1F1F1" height="33.9688" rx="12.5" ry="12.5" style="stroke:#181818;stroke-width:0.5;" width="84.0723" x="172.6555" y="713.0547"/><text fill="#000000" font-family="sans-serif" font-size="12" lengthAdjust="spacing" textLength="64.0723" x="182.6555" y="734.1934">Run task 1</text><rect fill="#F1F1F1" height="33.9688" style="stroke:#181818;stroke-width:0.5;" width="91.7715" x="168.8059" y="767.0234"/><text fill="#000000" font-family="sans-serif" font-size="12" lengthAdjust="spacing" textLength="71.7715" x="178.8059" y="788.1621">outputs.yml</text><rect fill="#F1F1F1" height="33.9688" rx="12.5" ry="12.5" style="stroke:#181818;stroke-width:0.5;" width="119.5918" x="154.8958" y="832.9922"/><text fill="#000000" font-family="sans-serif" font-size="12" lengthAdjust="spacing" textLength="99.5918" x="164.8958" y="854.1309">Register outputs</text><rect fill="#F1F1F1" height="33.9688" rx="12.5" ry="12.5" style="stroke:#181818;stroke-width:0.5;" width="107.0586" x="308.7542" y="632.7891"/><text fill="#000000" font-family="sans-serif" font-size="12" lengthAdjust="spacing" textLength="87.0586" x="318.7542" y="653.9277">Stage inputs 2</text><rect fill="none" height="136.2344" style="stroke:#000000;stroke-width:1.5;" width="111.7715" x="306.3977" y="676.7578"/><path d="M343.7483,676.7578 L343.7483,686.0547 L333.7483,696.0547 L306.3977,696.0547 " fill="none" style="stroke:#000000;stroke-width:1.5;"/><text fill="#000000" font-family="sans-serif" font-size="14" lengthAdjust="spacing" textLength="27.3506" x="309.3977" y="690.7529">App</text><rect fill="#F1F1F1" height="33.9688" rx="12.5" ry="12.5" style="stroke:#181818;stroke-width:0.5;" width="84.0723" x="320.2473" y="713.0547"/><text fill="#000000" font-family="sans-serif" font-size="12" lengthAdjust="spacing" textLength="64.0723" x="330.2473" y="734.1934">Run task 2</text><rect fill="#F1F1F1" height="33.9688" style="stroke:#181818;stroke-width:0.5;" width="91.7715" x="316.3977" y="767.0234"/><text fill="#000000" font-family="sans-serif" font-size="12" lengthAdjust="spacing" textLength="71.7715" x="326.3977" y="788.1621">outputs.yml</text><rect fill="#F1F1F1" height="33.9688" rx="12.5" ry="12.5" style="stroke:#181818;stroke-width:0.5;" width="119.5918" x="302.4875" y="832.9922"/><text fill="#000000" font-family="sans-serif" font-size="12" lengthAdjust="spacing" textLength="99.5918" x="312.4875" y="854.1309">Register outputs</text><rect fill="#555555" height="6" rx="2.5" ry="2.5" style="stroke:#555555;stroke-width:1.0;" width="295.1836" x="140.8958" y="886.9609"/><rect fill="#F1F1F1" height="33.9688" rx="12.5" ry="12.5" style="stroke:#181818;stroke-width:0.5;" width="194.4746" x="191.2502" y="912.9609"/><text fill="#000000" font-family="sans-serif" font-size="12" lengthAdjust="spacing" textLength="174.4746" x="201.2502" y="934.0996">Set workunit available status</text><ellipse cx="288.4875" cy="977.9297" fill="none" rx="11" ry="11" style="stroke:#222222;stroke-width:1.0;"/><ellipse cx="288.4875" cy="977.9297" fill="#222222" rx="6" ry="6" style="stroke:#222222;stroke-width:1.0;"/><line style="stroke:#181818;stroke-width:1.0;" x1="288.4875" x2="288.4875" y1="67.2969" y2="87.2969"/><polygon fill="#181818" points="284.4875,77.2969,288.4875,87.2969,292.4875,77.2969,288.4875,81.2969" style="stroke:#181818;stroke-width:1.0;"/><line style="stroke:#181818;stroke-width:1.0;" x1="103.3564" x2="103.3564" y1="223.0313" y2="241.5313"/><polygon fill="#181818" points="99.3564,231.5313,103.3564,241.5313,107.3564,231.5313,103.3564,235.5313" style="stroke:#181818;stroke-width:1.0;"/><line style="stroke:#181818;stroke-width:1.0;" x1="277.2188" x2="277.2188" y1="223.0313" y2="241.5313"/><polygon fill="#181818" points="273.2188,231.5313,277.2188,241.5313,281.2188,231.5313,277.2188,235.5313" style="stroke:#181818;stroke-width:1.0;"/><line style="stroke:#181818;stroke-width:1.0;" x1="103.3564" x2="103.3564" y1="275.5" y2="298.6484"/><polygon fill="#181818" points="99.3564,288.6484,103.3564,298.6484,107.3564,288.6484,103.3564,292.6484" style="stroke:#181818;stroke-width:1.0;"/><line style="stroke:#181818;stroke-width:1.0;" x1="277.2188" x2="277.2188" y1="275.5" y2="298.6484"/><polygon fill="#181818" points="273.2188,288.6484,277.2188,298.6484,281.2188,288.6484,277.2188,292.6484" style="stroke:#181818;stroke-width:1.0;"/><line style="stroke:#181818;stroke-width:1.0;" x1="288.4875" x2="288.4875" y1="201.5313" y2="221.5313"/><polygon fill="#181818" points="284.4875,211.5313,288.4875,221.5313,292.4875,211.5313,288.4875,215.5313" style="stroke:#181818;stroke-width:1.0;"/><line style="stroke:#181818;stroke-width:1.0;" x1="288.4875" x2="288.4875" y1="300.1484" y2="318.6484"/><polygon fill="#181818" points="284.4875,308.6484,288.4875,318.6484,292.4875,308.6484,288.4875,312.6484" style="stroke:#181818;stroke-width:1.0;"/><line style="stroke:#181818;stroke-width:1.0;" x1="288.4875" x2="288.4875" y1="352.6172" y2="372.6172"/><polygon fill="#181818" points="284.4875,362.6172,288.4875,372.6172,292.4875,362.6172,288.4875,366.6172" style="stroke:#181818;stroke-width:1.0;"/><line style="stroke:#181818;stroke-width:1.0;" x1="132.4114" x2="132.4114" y1="431.2344" y2="456.7188"/><polygon fill="#181818" points="128.4114,446.7188,132.4114,456.7188,136.4114,446.7188,132.4114,450.7188" style="stroke:#181818;stroke-width:1.0;"/><line style="stroke:#181818;stroke-width:1.0;" x1="263.175" x2="263.175" y1="431.2344" y2="449.7344"/><polygon fill="#181818" points="259.175,439.7344,263.175,449.7344,267.175,439.7344,263.175,443.7344" style="stroke:#181818;stroke-width:1.0;"/><line style="stroke:#181818;stroke-width:1.0;" x1="419.2512" x2="419.2512" y1="431.2344" y2="449.7344"/><polygon fill="#181818" points="415.2512,439.7344,419.2512,449.7344,423.2512,439.7344,419.2512,443.7344" style="stroke:#181818;stroke-width:1.0;"/><line style="stroke:#181818;stroke-width:1.0;" x1="132.4114" x2="132.4114" y1="490.6875" y2="517.6719"/><polygon fill="#181818" points="128.4114,507.6719,132.4114,517.6719,136.4114,507.6719,132.4114,511.6719" style="stroke:#181818;stroke-width:1.0;"/><line style="stroke:#181818;stroke-width:1.0;" x1="263.175" x2="263.175" y1="497.6719" y2="517.6719"/><polygon fill="#181818" points="259.175,507.6719,263.175,517.6719,267.175,507.6719,263.175,511.6719" style="stroke:#181818;stroke-width:1.0;"/><line style="stroke:#181818;stroke-width:1.0;" x1="419.2512" x2="419.2512" y1="497.6719" y2="517.6719"/><polygon fill="#181818" points="415.2512,507.6719,419.2512,517.6719,423.2512,507.6719,419.2512,511.6719" style="stroke:#181818;stroke-width:1.0;"/><line style="stroke:#181818;stroke-width:1.0;" x1="288.4875" x2="288.4875" y1="406.5859" y2="429.7344"/><polygon fill="#181818" points="284.4875,419.7344,288.4875,429.7344,292.4875,419.7344,288.4875,423.7344" style="stroke:#181818;stroke-width:1.0;"/><line style="stroke:#181818;stroke-width:1.0;" x1="288.4875" x2="288.4875" y1="519.1719" y2="537.6719"/><polygon fill="#181818" points="284.4875,527.6719,288.4875,537.6719,292.4875,527.6719,288.4875,531.6719" style="stroke:#181818;stroke-width:1.0;"/><line style="stroke:#181818;stroke-width:1.0;" x1="288.4875" x2="288.4875" y1="121.2656" y2="167.5625"/><polygon fill="#181818" points="284.4875,157.5625,288.4875,167.5625,292.4875,157.5625,288.4875,161.5625" style="stroke:#181818;stroke-width:1.0;"/><line style="stroke:#181818;stroke-width:1.0;" x1="214.6917" x2="214.6917" y1="747.0234" y2="767.0234"/><polygon fill="#181818" points="210.6917,757.0234,214.6917,767.0234,218.6917,757.0234,214.6917,761.0234" style="stroke:#181818;stroke-width:1.0;"/><line style="stroke:#181818;stroke-width:1.0;" x1="214.6917" x2="214.6917" y1="666.7578" y2="713.0547"/><polygon fill="#181818" points="210.6917,703.0547,214.6917,713.0547,218.6917,703.0547,214.6917,707.0547" style="stroke:#181818;stroke-width:1.0;"/><line style="stroke:#181818;stroke-width:1.0;" x1="214.6917" x2="214.6917" y1="800.9922" y2="832.9922"/><polygon fill="#181818" points="210.6917,822.9922,214.6917,832.9922,218.6917,822.9922,214.6917,826.9922" style="stroke:#181818;stroke-width:1.0;"/><line style="stroke:#181818;stroke-width:1.0;" x1="362.2834" x2="362.2834" y1="747.0234" y2="767.0234"/><polygon fill="#181818" points="358.2834,757.0234,362.2834,767.0234,366.2834,757.0234,362.2834,761.0234" style="stroke:#181818;stroke-width:1.0;"/><line style="stroke:#181818;stroke-width:1.0;" x1="362.2834" x2="362.2834" y1="666.7578" y2="713.0547"/><polygon fill="#181818" points="358.2834,703.0547,362.2834,713.0547,366.2834,703.0547,362.2834,707.0547" style="stroke:#181818;stroke-width:1.0;"/><line style="stroke:#181818;stroke-width:1.0;" x1="362.2834" x2="362.2834" y1="800.9922" y2="832.9922"/><polygon fill="#181818" points="358.2834,822.9922,362.2834,832.9922,366.2834,822.9922,362.2834,826.9922" style="stroke:#181818;stroke-width:1.0;"/><line style="stroke:#181818;stroke-width:1.0;" x1="214.6917" x2="214.6917" y1="612.7891" y2="632.7891"/><polygon fill="#181818" points="210.6917,622.7891,214.6917,632.7891,218.6917,622.7891,214.6917,626.7891" style="stroke:#181818;stroke-width:1.0;"/><line style="stroke:#181818;stroke-width:1.0;" x1="362.2834" x2="362.2834" y1="612.7891" y2="632.7891"/><polygon fill="#181818" points="358.2834,622.7891,362.2834,632.7891,366.2834,622.7891,362.2834,626.7891" style="stroke:#181818;stroke-width:1.0;"/><line style="stroke:#181818;stroke-width:1.0;" x1="214.6917" x2="214.6917" y1="866.9609" y2="886.9609"/><polygon fill="#181818" points="210.6917,876.9609,214.6917,886.9609,218.6917,876.9609,214.6917,880.9609" style="stroke:#181818;stroke-width:1.0;"/><line style="stroke:#181818;stroke-width:1.0;" x1="362.2834" x2="362.2834" y1="866.9609" y2="886.9609"/><polygon fill="#181818" points="358.2834,876.9609,362.2834,886.9609,366.2834,876.9609,362.2834,880.9609" style="stroke:#181818;stroke-width:1.0;"/><line style="stroke:#181818;stroke-width:1.0;" x1="288.4875" x2="288.4875" y1="571.6406" y2="606.7891"/><polygon fill="#181818" points="284.4875,596.7891,288.4875,606.7891,292.4875,596.7891,288.4875,600.7891" style="stroke:#181818;stroke-width:1.0;"/><line style="stroke:#181818;stroke-width:1.0;" x1="288.4875" x2="288.4875" y1="892.9609" y2="912.9609"/><polygon fill="#181818" points="284.4875,902.9609,288.4875,912.9609,292.4875,902.9609,288.4875,906.9609" style="stroke:#181818;stroke-width:1.0;"/><line style="stroke:#181818;stroke-width:1.0;" x1="288.4875" x2="288.4875" y1="946.9297" y2="966.9297"/><polygon fill="#181818" points="284.4875,956.9297,288.4875,966.9297,292.4875,956.9297,288.4875,960.9297" style="stroke:#181818;stroke-width:1.0;"/><!--SRC=[dLF1Rjim3BtxApXVTcg6vfYS2km3XdGx1WCZCpOHMJ8aAa5QzDzBIKcQTC4mx638eXuV-PueOR7K03nD4woISnJWoGZlMOxmdR4FE3RaEf22Qw9Wa6Pny66N7CllGDjrCscCXRsxPdbLqiMA933j2Su9WCg5YcAtzM74dBLKP9miYwwQS-7kQCkkyCwEersVKO0ziiliodC7vBmG1Ew7olTpe4Y0WM3KDD6FEgqEM4uDEGbe-KM3WIOVMNmuplGiYyvKfz_QOAxwJF8XPmhUK8piUb1h9CKiPj6ssjf3g4PajHt72SKCRRkyro57pIOrHTSqQHVQZNZO47Ga54PL68NDbmhtWDRwGoPLTpT9SdKP20JZBcPjURDDaW9zKd9bSm7VD_Pq-lYDtPIaW4gq1lMsSVnxvlnUvlnJveUhN-6NCvOmw1yiVWGotdLreCn0PlUdfsP8RdSs_q7jQDjryzOqjyxgrGCQIMZ1Xuv2zkd0rbPZ3NTgyq3L9BZuaO-ipaii8TrDsYavmnHdpSLBdTvT5Vmis1DKmV2uBC7R5_5QOlav95T9Jp0D-IHdfzObzbPPLzJhzQhK4s1PAbuRVLDt_czrv_zHDqikQflRqSSziiMDfSlaH_7JEm00]--></g></svg>