<svg xmlns="http://www.w3.org/2000/svg" xmlns:xlink="http://www.w3.org/1999/xlink" contentStyleType="text/css" height="985px" preserveAspectRatio="none" style="width:780px;height:985px;background:#FFFFFF;" version="1.1" viewBox="0 0 780 985" width="780px" zoomAndPan="magnify"><title>App Runner Activity Diagram</title><defs/><g><text fill="#000000" font-family="sans-serif" font-size="14" font-weight="bold" lengthAdjust="spacing" textLength="229.7764" x="273.911" y="32.9951">App Runner Activity Diagram</text><ellipse cx="288.4875" cy="57.2969" fill="#222222" rx="10" ry="10" style="stroke:#222222;stroke-width:1.0;"/><rect fill="#F1F1F1" height="33.9688" style="stroke:#181818;stroke-width:0.5;" width="94.8301" x="241.0725" y="87.2969"/><text fill="#000000" font-family="sans-serif" font-size="12" lengthAdjust="spacing" textLength="74.8301" x="251.0725" y="108.4355">workunit_ref</text><rect fill="none" height="441.5547" style="stroke:#000000;stroke-width:1.5;" width="758.5984" x="11" y="131.2656"/><path d="M103.5166,131.2656 L103.5166,140.5625 L93.5166,150.5625 L11,150.5625 " fill="none" style="stroke:#000000;stroke-width:1.5;"/><text fill="#000000" font-family="sans-serif" font-size="14" lengthAdjust="spacing" textLength="82.5166" x="14" y="145.2607">App Runner</text><rect fill="#F1F1F1" height="33.9688" rx="12.5" ry="12.5" style="stroke:#181818;stroke-width:0.5;" width="252.7402" x="162.1174" y="167.5625"/><text fill="#000000" font-family="sans-serif" font-size="12" lengthAdjust="spacing" textLength="232.7402" x="172.1174" y="188.7012">Retrieve workunit and app information</text><line style="stroke:#181818;stroke-width:1.5;" x1="103.3564" x2="288.4875" y1="221.5313" y2="221.5313"/><rect fill="#F1F1F1" height="33.9688" style="stroke:#181818;stroke-width:0.5;" width="160.7129" x="23" y="241.5313"/><text fill="#000000" font-family="sans-serif" font-size="12" lengthAdjust="spacing" textLength="140.7129" x="33" y="262.6699">workunit_definition.yml</text><path d="M362.7246,238.3828 L362.7246,254.5156 L342.7246,258.5156 L362.7246,262.5156 L362.7246,278.6484 A0,0 0 0 0 362.7246,278.6484 L553.9751,278.6484 A0,0 0 0 0 553.9751,278.6484 L553.9751,248.3828 L543.9751,238.3828 L362.7246,238.3828 A0,0 0 0 0 362.7246,238.3828 " fill="#FEFFDD" style="stroke:#181818;stroke-width:0.5;"/><path d="M543.9751,238.3828 L543.9751,248.3828 L553.9751,248.3828 L543.9751,238.3828 " fill="#FEFFDD" style="stroke:#181818;stroke-width:0.5;"/><text fill="#000000" font-family="sans-serif" font-size="13" lengthAdjust="spacing" textLength="170.2505" x="368.7246" y="255.4497">These are maintained in a</text><text fill="#000000" font-family="sans-serif" font-size="13" lengthAdjust="spacing" textLength="146.377" x="368.7246" y="270.5825">centralized repository.</text><rect fill="#F1F1F1" height="33.9688" style="stroke:#181818;stroke-width:0.5;" width="131.0117" x="211.7129" y="241.5313"/><text fill="#000000" font-family="sans-serif" font-size="12" lengthAdjust="spacing" textLength="111.0117" x="221.7129" y="262.6699">app_definition.yml</text><line style="stroke:#181818;stroke-width:1.5;" x1="103.3564" x2="288.4875" y1="298.6484" y2="298.6484"/><rect fill="#F1F1F1" height="33.9688" rx="12.5" ry="12.5" style="stroke:#181818;stroke-width:0.5;" width="205.2441" x="185.8655" y="318.6484"/><text fill="#000000" font-family="sans-serif" font-size="12" lengthAdjust="spacing" textLength="185.2441" x="195.8655" y="339.7871">Set workunit processing status</text><path d="M441.3059,369.4688 L441.3059,385.6016 L421.3059,389.6016 L441.3059,393.6016 L441.3059,409.7344 A0,0 0 0 0 441.3059,409.7344 L759.5984,409.7344 A0,0 0 0 0 759.5984,409.7344 L759.5984,379.4688 L749.5984,369.4688 L441.3059,369.4688 A0,0 0 0 0 441.3059,369.4688 " fill="#FEFFDD" style="stroke:#181818;stroke-width:0.5;"/><path d="M749.5984,369.4688 L749.5984,379.4688 L759.5984,379.4688 L749.5984,369.4688 " fill="#FEFFDD" style="stroke:#181818;stroke-width:0.5;"/><text fill="#000000" font-family="sans-serif" font-size="13" lengthAdjust="spacing" textLength="272.3145" x="447.3059" y="386.5356">This step is supposed to be deterministic!</text><text fill="#000000" font-family="sans-serif" font-size="13" lengthAdjust="spacing" textLength="297.2925" x="447.3059" y="401.6685">To allow distributing the chunks in the future.</text><rect fill="#F1F1F1" height="33.9688" rx="12.5" ry="12.5" style="stroke:#181818;stroke-width:0.5;" width="265.6367" x="155.6692" y="372.6172"/><text fill="#000000" font-family="monospace" font-size="12" lengthAdjust="spacing" textLength="245.6367" x="165.6692" y="393.7559">bfabric-app-runner&#160;action&#160;dispatch</text><line style="stroke:#181818;stroke-width:1.5;" x1="129.3879" x2="426.3147" y1="429.7344" y2="429.7344"/><rect fill="#F1F1F1" height="33.9688" style="stroke:#181818;stroke-width:0.5;" width="88.5547" x="85.1106" y="449.7344"/><text fill="#000000" font-family="sans-serif" font-size="12" lengthAdjust="spacing" textLength="68.5547" x="95.1106" y="470.873">chunks.yml</text><rect fill="#F1F1F1" height="33.9688" style="stroke:#181818;stroke-width:0.5;" width="131.0996" x="201.6653" y="449.7344"/><text fill="#000000" font-family="sans-serif" font-size="12" lengthAdjust="spacing" textLength="111.0996" x="211.6653" y="470.873">chunk1/inputs.yml</text><rect fill="#F1F1F1" height="33.9688" style="stroke:#181818;stroke-width:0.5;" width="131.0996" x="360.7649" y="449.7344"/><text fill="#000000" font-family="sans-serif" font-size="12" lengthAdjust="spacing" textLength="111.0996" x="370.7649" y="470.873">chunk2/inputs.yml</text><line style="stroke:#181818;stroke-width:1.5;" x1="129.3879" x2="426.3147" y1="503.7031" y2="503.7031"/><path d="M437.6936,520.5547 L437.6936,536.6875 L417.6936,540.6875 L437.6936,544.6875 L437.6936,560.8203 A0,0 0 0 0 437.6936,560.8203 L703.4529,560.8203 A0,0 0 0 0 703.4529,560.8203 L703.4529,530.5547 L693.4529,520.5547 L437.6936,520.5547 A0,0 0 0 0 437.6936,520.5547 " fill="#FEFFDD" style="stroke:#181818;stroke-width:0.5;"/><path d="M693.4529,520.5547 L693.4529,530.5547 L703.4529,530.5547 L693.4529,520.5547 " fill="#FEFFDD" style="stroke:#181818;stroke-width:0.5;"/><text fill="#000000" font-family="sans-serif" font-size="13" lengthAdjust="spacing" textLength="244.7593" x="443.6936" y="537.6216">chunks.yml lists all chunk directories;</text><text fill="#000000" font-family="sans-serif" font-size="13" lengthAdjust="spacing" textLength="241.0269" x="443.6936" y="552.7544">run-all processes each chunk in turn.</text><rect fill="#F1F1F1" height="33.9688" style="stroke:#181818;stroke-width:0.5;" width="258.4121" x="159.2815" y="523.7031"/><text fill="#000000" font-family="monospace" font-size="12" lengthAdjust="spacing" textLength="238.4121" x="169.2815" y="544.8418">bfabric-app-runner&#160;action&#160;run-all</text><rect fill="#555555" height="6" rx="2.5" ry="2.5" style="stroke:#555555;stroke-width:1.0;" width="369.1992" x="103.8879" y="592.8203"/><rect fill="#F1F1F1" height="33.9688" rx="12.5" ry="12.5" style="stroke:#181818;stroke-width:0.5;" width="156.5996" x="117.8879" y="618.8203"/><text fill="#000000" font-family="sans-serif" font-size="12" lengthAdjust="spacing" textLength="136.5996" x="127.8879" y="639.959">Stage inputs (chunk 1)</text><rect fill="none" height="136.2344" style="stroke:#000000;stroke-width:1.5;" width="137.623" x="127.3762" y="662.7891"/><path d="M164.7268,662.7891 L164.7268,672.0859 L154.7268,682.0859 L127.3762,682.0859 " fill="none" style="stroke:#000000;stroke-width:1.5;"/><text fill="#000000" font-family="sans-serif" font-size="14" lengthAdjust="spacing" textLength="27.3506" x="130.3762" y="676.7842">App</text><rect fill="#F1F1F1" height="33.9688" rx="12.5" ry="12.5" style="stroke:#181818;stroke-width:0.5;" width="117.623" x="137.3762" y="699.0859"/><text fill="#000000" font-family="sans-serif" font-size="12" lengthAdjust="spacing" textLength="97.623" x="147.3762" y="720.2246">Process chunk 1</text><rect fill="#F1F1F1" height="33.9688" style="stroke:#181818;stroke-width:0.5;" width="91.7715" x="150.302" y="753.0547"/><text fill="#000000" font-family="sans-serif" font-size="12" lengthAdjust="spacing" textLength="71.7715" x="160.302" y="774.1934">outputs.yml</text><rect fill="#F1F1F1" height="33.9688" rx="12.5" ry="12.5" style="stroke:#181818;stroke-width:0.5;" width="119.5918" x="136.3918" y="819.0234"/><text fill="#000000" font-family="sans-serif" font-size="12" lengthAdjust="spacing" textLength="99.5918" x="146.3918" y="840.1621">Register outputs</text><rect fill="#F1F1F1" height="33.9688" rx="12.5" ry="12.5" style="stroke:#181818;stroke-width:0.5;" width="156.5996" x="302.4875" y="618.8203"/><text fill="#000000" font-family="sans-serif" font-size="12" lengthAdjust="spacing" textLength="136.5996" x="312.4875" y="639.959">Stage inputs (chunk 2)</text><rect fill="none" height="136.2344" style="stroke:#000000;stroke-width:1.5;" width="137.623" x="311.9758" y="662.7891"/><path d="M349.3264,662.7891 L349.3264,672.0859 L339.3264,682.0859 L311.9758,682.0859 " fill="none" style="stroke:#000000;stroke-width:1.5;"/><text fill="#000000" font-family="sans-serif" font-size="14" lengthAdjust="spacing" textLength="27.3506" x="314.9758" y="676.7842">App</text><rect fill="#F1F1F1" height="33.9688" rx="12.5" ry="12.5" style="stroke:#181818;stroke-width:0.5;" width="117.623" x="321.9758" y="699.0859"/><text fill="#000000" font-family="sans-serif" font-size="12" lengthAdjust="spacing" textLength="97.623" x="331.9758" y="720.2246">Process chunk 2</text><rect fill="#F1F1F1" height="33.9688" style="stroke:#181818;stroke-width:0.5;" width="91.7715" x="334.9016" y="753.0547"/><text fill="#000000" font-family="sans-serif" font-size="12" lengthAdjust="spacing" textLength="71.7715" x="344.9016" y="774.1934">outputs.yml</text><rect fill="#F1F1F1" height="33.9688" rx="12.5" ry="12.5" style="stroke:#181818;stroke-width:0.5;" width="119.5918" x="320.9915" y="819.0234"/><text fill="#000000" font-family="sans-serif" font-size="12" lengthAdjust="spacing" textLength="99.5918" x="330.9915" y="840.1621">Register outputs</text><rect fill="#555555" height="6" rx="2.5" ry="2.5" style="stroke:#555555;stroke-width:1.0;" width="369.1992" x="103.8879" y="872.9922"/><rect fill="#F1F1F1" height="33.9688" rx="12.5" ry="12.5" style="stroke:#181818;stroke-width:0.5;" width="194.4746" x="191.2502" y="898.9922"/><text fill="#000000" font-family="sans-serif" font-size="12" lengthAdjust="spacing" textLength="174.4746" x="201.2502" y="920.1309">Set workunit available status</text><ellipse cx="288.4875" cy="963.9609" fill="none" rx="11" ry="11" style="stroke:#222222;stroke-width:1.0;"/><ellipse cx="288.4875" cy="963.9609" fill="#222222" rx="6" ry="6" style="stroke:#222222;stroke-width:1.0;"/><line style="stroke:#181818;stroke-width:1.0;" x1="288.4875" x2="288.4875" y1="67.2969" y2="87.2969"/><polygon fill="#181818" points="284.4875,77.2969,288.4875,87.2969,292.4875,77.2969,288.4875,81.2969" style="stroke:#181818;stroke-width:1.0;"/><line style="stroke:#181818;stroke-width:1.0;" x1="103.3564" x2="103.3564" y1="223.0313" y2="241.5313"/><polygon fill="#181818" points="99.3564,231.5313,103.3564,241.5313,107.3564,231.5313,103.3564,235.5313" style="stroke:#181818;stroke-width:1.0;"/><line style="stroke:#181818;stroke-width:1.0;" x1="277.2188" x2="277.2188" y1="223.0313" y2="241.5313"/><polygon fill="#181818" points="273.2188,231.5313,277.2188,241.5313,281.2188,231.5313,277.2188,235.5313" style="stroke:#181818;stroke-width:1.0;"/><line style="stroke:#181818;stroke-width:1.0;" x1="103.3564" x2="103.3564" y1="275.5" y2="298.6484"/><polygon fill="#181818" points="99.3564,288.6484,103.3564,298.6484,107.3564,288.6484,103.3564,292.6484" style="stroke:#181818;stroke-width:1.0;"/><line style="stroke:#181818;stroke-width:1.0;" x1="277.2188" x2="277.2188" y1="275.5" y2="298.6484"/><polygon fill="#181818" points="273.2188,288.6484,277.2188,298.6484,281.2188,288.6484,277.2188,292.6484" style="stroke:#181818;stroke-width:1.0;"/><line style="stroke:#181818;stroke-width:1.0;" x1="288.4875" x2="288.4875" y1="201.5313" y2="221.5313"/><polygon fill="#181818" points="284.4875,211.5313,288.4875,221.5313,292.4875,211.5313,288.4875,215.5313" style="stroke:#181818;stroke-width:1.0;"/><line style="stroke:#181818;stroke-width:1.0;" x1="288.4875" x2="288.4875" y1="300.1484" y2="318.6484"/><polygon fill="#181818" points="284.4875,308.6484,288.4875,318.6484,292.4875,308.6484,288.4875,312.6484" style="stroke:#181818;stroke-width:1.0;"/><line style="stroke:#181818;stroke-width:1.0;" x1="288.4875" x2="288.4875" y1="352.6172" y2="372.6172"/><polygon fill="#181818" points="284.4875,362.6172,288.4875,372.6172,292.4875,362.6172,288.4875,366.6172" style="stroke:#181818;stroke-width:1.0;"/><line style="stroke:#181818;stroke-width:1.0;" x1="129.3879" x2="129.3879" y1="431.2344" y2="449.7344"/><polygon fill="#181818" points="125.3879,439.7344,129.3879,449.7344,133.3879,439.7344,129.3879,443.7344" style="stroke:#181818;stroke-width:1.0;"/><line style="stroke:#181818;stroke-width:1.0;" x1="267.2151" x2="267.2151" y1="431.2344" y2="449.7344"/><polygon fill="#181818" points="263.2151,439.7344,267.2151,449.7344,271.2151,439.7344,267.2151,443.7344" style="stroke:#181818;stroke-width:1.0;"/><line style="stroke:#181818;stroke-width:1.0;" x1="426.3147" x2="426.3147" y1="431.2344" y2="449.7344"/><polygon fill="#181818" points="422.3147,439.7344,426.3147,449.7344,430.3147,439.7344,426.3147,443.7344" style="stroke:#181818;stroke-width:1.0;"/><line style="stroke:#181818;stroke-width:1.0;" x1="129.3879" x2="129.3879" y1="483.7031" y2="503.7031"/><polygon fill="#181818" points="125.3879,493.7031,129.3879,503.7031,133.3879,493.7031,129.3879,497.7031" style="stroke:#181818;stroke-width:1.0;"/><line style="stroke:#181818;stroke-width:1.0;" x1="267.2151" x2="267.2151" y1="483.7031" y2="503.7031"/><polygon fill="#181818" points="263.2151,493.7031,267.2151,503.7031,271.2151,493.7031,267.2151,497.7031" style="stroke:#181818;stroke-width:1.0;"/><line style="stroke:#181818;stroke-width:1.0;" x1="426.3147" x2="426.3147" y1="483.7031" y2="503.7031"/><polygon fill="#181818" points="422.3147,493.7031,426.3147,503.7031,430.3147,493.7031,426.3147,497.7031" style="stroke:#181818;stroke-width:1.0;"/><line style="stroke:#181818;stroke-width:1.0;" x1="288.4875" x2="288.4875" y1="406.5859" y2="429.7344"/><polygon fill="#181818" points="284.4875,419.7344,288.4875,429.7344,292.4875,419.7344,288.4875,423.7344" style="stroke:#181818;stroke-width:1.0;"/><line style="stroke:#181818;stroke-width:1.0;" x1="288.4875" x2="288.4875" y1="505.2031" y2="523.7031"/><polygon fill="#181818" points="284.4875,513.7031,288.4875,523.7031,292.4875,513.7031,288.4875,517.7031" style="stroke:#181818;stroke-width:1.0;"/><line style="stroke:#181818;stroke-width:1.0;" x1="288.4875" x2="288.4875" y1="121.2656" y2="167.5625"/><polygon fill="#181818" points="284.4875,157.5625,288.4875,167.5625,292.4875,157.5625,288.4875,161.5625" style="stroke:#181818;stroke-width:1.0;"/><line style="stroke:#181818;stroke-width:1.0;" x1="196.1877" x2="196.1877" y1="733.0547" y2="753.0547"/><polygon fill="#181818" points="192.1877,743.0547,196.1877,753.0547,200.1877,743.0547,196.1877,747.0547" style="stroke:#181818;stroke-width:1.0;"/><line style="stroke:#181818;stroke-width:1.0;" x1="196.1877" x2="196.1877" y1="652.7891" y2="699.0859"/><polygon fill="#181818" points="192.1877,689.0859,196.1877,699.0859,200.1877,689.0859,196.1877,693.0859" style="stroke:#181818;stroke-width:1.0;"/><line style="stroke:#181818;stroke-width:1.0;" x1="196.1877" x2="196.1877" y1="787.0234" y2="819.0234"/><polygon fill="#181818" points="192.1877,809.0234,196.1877,819.0234,200.1877,809.0234,196.1877,813.0234" style="stroke:#181818;stroke-width:1.0;"/><line style="stroke:#181818;stroke-width:1.0;" x1="380.7874" x2="380.7874" y1="733.0547" y2="753.0547"/><polygon fill="#181818" points="376.7874,743.0547,380.7874,753.0547,384.7874,743.0547,380.7874,747.0547" style="stroke:#181818;stroke-width:1.0;"/><line style="stroke:#181818;stroke-width:1.0;" x1="380.7874" x2="380.7874" y1="652.7891" y2="699.0859"/><polygon fill="#181818" points="376.7874,689.0859,380.7874,699.0859,384.7874,689.0859,380.7874,693.0859" style="stroke:#181818;stroke-width:1.0;"/><line style="stroke:#181818;stroke-width:1.0;" x1="380.7874" x2="380.7874" y1="787.0234" y2="819.0234"/><polygon fill="#181818" points="376.7874,809.0234,380.7874,819.0234,384.7874,809.0234,380.7874,813.0234" style="stroke:#181818;stroke-width:1.0;"/><line style="stroke:#181818;stroke-width:1.0;" x1="196.1877" x2="196.1877" y1="598.8203" y2="618.8203"/><polygon fill="#181818" points="192.1877,608.8203,196.1877,618.8203,200.1877,608.8203,196.1877,612.8203" style="stroke:#181818;stroke-width:1.0;"/><line style="stroke:#181818;stroke-width:1.0;" x1="380.7874" x2="380.7874" y1="598.8203" y2="618.8203"/><polygon fill="#181818" points="376.7874,608.8203,380.7874,618.8203,384.7874,608.8203,380.7874,612.8203" style="stroke:#181818;stroke-width:1.0;"/><line style="stroke:#181818;stroke-width:1.0;" x1="196.1877" x2="196.1877" y1="852.9922" y2="872.9922"/><polygon fill="#181818" points="192.1877,862.9922,196.1877,872.9922,200.1877,862.9922,196.1877,866.9922" style="stroke:#181818;stroke-width:1.0;"/><line style="stroke:#181818;stroke-width:1.0;" x1="380.7874" x2="380.7874" y1="852.9922" y2="872.9922"/><polygon fill="#181818" points="376.7874,862.9922,380.7874,872.9922,384.7874,862.9922,380.7874,866.9922" style="stroke:#181818;stroke-width:1.0;"/><line style="stroke:#181818;stroke-width:1.0;" x1="288.4875" x2="288.4875" y1="557.6719" y2="592.8203"/><polygon fill="#181818" points="284.4875,582.8203,288.4875,592.8203,292.4875,582.8203,288.4875,586.8203" style="stroke:#181818;stroke-width:1.0;"/><line style="stroke:#181818;stroke-width:1.0;" x1="288.4875" x2="288.4875" y1="878.9922" y2="898.9922"/><polygon fill="#181818" points="284.4875,888.9922,288.4875,898.9922,292.4875,888.9922,288.4875,892.9922" style="stroke:#181818;stroke-width:1.0;"/><line style="stroke:#181818;stroke-width:1.0;" x1="288.4875" x2="288.4875" y1="932.9609" y2="952.9609"/><polygon fill="#181818" points="284.4875,942.9609,288.4875,952.9609,292.4875,942.9609,288.4875,946.9609" style="stroke:#181818;stroke-width:1.0;"/><!--SRC=[hPFDRjim3CVlUGhEbss7P4YEoQd07c18ssCnq39j4t4aGw9IPCNUVPG_iwGjYc4639lIdry_IW00mjBG0hhdhcrX7wqb3tT6-CHoXk-CbSTZfo1R3FhE389Ukh_ji_E7Q5b-UYgVkgLMzrZOsSkeBqEYxPx4Cvq8HaT0ZOsgP5iwVyJakHlKeMrOXl_BN0MLRBiSg_EnURfK0rR8TiocSTyGMoS4dgjwZlzGKo10Jt3K4A8l5LeLuAGmPCLZmxzqmrFh0elpvzMmdo2bi1Tcty1OpJt9t7RhdQ4Gs5O9fyGmDhtDihp4tBDPQlbBtmD4qo4jEBGefiwotNkDSD2Wf4pr6rijL0iM1pb1GKB-g422iFaqkpZ0fd7FAO4EA8-I2fEQmDJH7aBYaAmoIlJqHiTNu-eztv_GA5j_Ozj6-Q1wyufwnfsip_1eJKFe1mksFpmPPul-P9gQpE53mDLQAfaiw_FyxeTv2trk5Xf561BEVb6HQcezA4pJZCUmuocW08Ic7XmIw-ZjQd73M6_8OMPnBrWHz2ZWI- -x_ZhbkBg9BzDwHwFBEoHSxoxtN9HhkAdnQNzFbNQeY0RXRYhjUbYl5RZvbm8t_w701BBZjxYzZ7X2RZ1lwA-x6CIrVm00]--></g></svg>